<svg width="16" height="16" viewBox="0 0 16 16" fill="none" xmlns="http://www.w3.org/2000/svg">
<g clip-path="url(#clip0_1_326)">
<path d="M11.2174 13.25C11.3391 13.3667 11.4783 13.4167 11.6348 13.4167C11.7913 13.4167 11.9304 13.3667 12.0522 13.25L13.6522 11.7167C13.8783 11.5 13.8783 11.1333 13.6522 10.9167C13.4261 10.7 13.0435 10.7 12.8174 10.9167L11.6348 12.05L11.2 11.6333C10.9739 11.4167 10.5913 11.4167 10.3652 11.6333C10.1391 11.85 10.1391 12.2167 10.3652 12.4333L11.2174 13.25Z" fill="#00C8FA"/>
<path d="M14.1913 1.61665H13.4435V1.44998C13.4435 0.683317 12.8 0.0666504 12 0.0666504C11.2 0.0666504 10.5565 0.683317 10.5565 1.44998V1.61665H9.42609V1.44998C9.42609 0.683317 8.78261 0.0666504 7.98261 0.0666504C7.18261 0.0666504 6.53913 0.683317 6.53913 1.44998V1.61665H5.4087V1.44998C5.4087 0.683317 4.76522 0.0666504 3.96522 0.0666504C3.16522 0.0666504 2.52174 0.683317 2.52174 1.44998V1.61665H1.77392C0.800004 1.61665 0.017395 2.36665 0.017395 3.29998V14.2167C0.017395 15.15 0.800004 15.9 1.77392 15.9H14.1565C15.1304 15.9 15.913 15.15 15.913 14.2167V3.31665C15.9478 2.38332 15.1652 1.61665 14.1913 1.61665ZM11.4783 1.46665C11.4783 1.18332 11.7217 0.96665 12 0.96665C12.2957 0.96665 12.5217 1.19998 12.5217 1.46665V2.66665C12.5217 2.94998 12.2783 3.16665 12 3.16665C11.7044 3.16665 11.4783 2.93332 11.4783 2.66665V1.46665ZM7.47826 1.46665C7.47826 1.18332 7.72174 0.96665 8 0.96665C8.29566 0.96665 8.52174 1.19998 8.52174 1.46665V2.66665C8.52174 2.94998 8.27826 3.16665 8 3.16665C7.70435 3.16665 7.47826 2.93332 7.47826 2.66665V1.46665ZM3.46087 1.46665C3.46087 1.18332 3.70435 0.96665 3.98261 0.96665C4.27826 0.96665 4.50435 1.19998 4.50435 1.46665V2.66665C4.50435 2.94998 4.26087 3.16665 3.98261 3.16665C3.68696 3.16665 3.46087 2.93332 3.46087 2.66665V1.46665ZM15.0435 14.2333C15.0435 14.6833 14.6609 15.05 14.1913 15.05H1.8087C1.33913 15.05 0.956526 14.6833 0.956526 14.2333V5.39998H15.0261V14.2333H15.0435Z" fill="#00C8FA"/>
<path d="M3.18261 9.68325H4.97392C5.21739 9.68325 5.42609 9.48325 5.42609 9.24992V7.51659C5.42609 7.28325 5.21739 7.08325 4.97392 7.08325H3.18261C2.93913 7.08325 2.73044 7.28325 2.73044 7.51659V9.24992C2.73044 9.48325 2.93913 9.68325 3.18261 9.68325Z" fill="#00C8FA"/>
<path d="M7.11305 9.68325H8.90436C9.14784 9.68325 9.35653 9.48325 9.35653 9.24992V7.51659C9.35653 7.28325 9.14784 7.08325 8.90436 7.08325H7.11305C6.86958 7.08325 6.66088 7.28325 6.66088 7.51659V9.24992C6.64349 9.48325 6.85218 9.68325 7.11305 9.68325Z" fill="#00C8FA"/>
<path d="M11.0261 9.68325H12.8174C13.0609 9.68325 13.2696 9.48325 13.2696 9.24992V7.51659C13.2696 7.28325 13.0609 7.08325 12.8174 7.08325H11.0261C10.7826 7.08325 10.5739 7.28325 10.5739 7.51659V9.24992C10.5739 9.48325 10.7826 9.68325 11.0261 9.68325Z" fill="#00C8FA"/>
<path d="M3.18261 13.3832H4.97392C5.21739 13.3832 5.42609 13.1832 5.42609 12.9499V11.2165C5.42609 10.9832 5.21739 10.7832 4.97392 10.7832H3.18261C2.93913 10.7832 2.73044 10.9832 2.73044 11.2165V12.9499C2.73044 13.1832 2.93913 13.3832 3.18261 13.3832Z" fill="#00C8FA"/>
<path d="M7.11305 13.3832H8.90436C9.14784 13.3832 9.35653 13.1832 9.35653 12.9499V11.2165C9.35653 10.9832 9.14784 10.7832 8.90436 10.7832H7.11305C6.86958 10.7832 6.66088 10.9832 6.66088 11.2165V12.9499C6.64349 13.1832 6.85218 13.3832 7.11305 13.3832Z" fill="#00C8FA"/>
</g>
<defs>
<clipPath id="clip0_1_326">
<rect width="16" height="16" fill="white"/>
</clipPath>
</defs>
</svg>
