<svg width="82" height="21" viewBox="0 0 82 21" fill="none" xmlns="http://www.w3.org/2000/svg">
<path d="M0 20.6796V8.60351H5.40239C6.40092 8.60351 7.23262 8.92891 7.89504 9.57727C8.55746 10.2281 8.88867 11.0246 8.88867 11.9668C8.88867 12.7268 8.66786 13.3825 8.22625 13.9337C8.05206 14.1523 7.83616 14.3587 7.58101 14.5554V14.6403C7.86069 14.8006 8.10358 15.0095 8.31212 15.262C8.81261 15.8497 9.06041 16.532 9.06041 17.3139C9.06041 18.2683 8.73165 19.0672 8.07659 19.7131C7.41908 20.3566 6.60455 20.6796 5.6281 20.6796H0ZM1.83024 13.8657H5.31652C5.80475 13.8657 6.21692 13.6933 6.55303 13.3485C6.88915 13.0036 7.05843 12.5714 7.05843 12.0542C7.05843 11.5369 6.88915 11.1047 6.55303 10.7599C6.21692 10.415 5.80475 10.2426 5.31652 10.2426H1.83024V13.8657ZM1.83024 19.0405H5.49071C5.97894 19.0405 6.39111 18.8681 6.72722 18.5233C7.06334 18.1784 7.23262 17.7462 7.23262 17.2289C7.23262 16.7117 7.06334 16.2795 6.72722 15.9346C6.39111 15.5898 5.97894 15.4174 5.49071 15.4174H1.83024V19.0405Z" fill="#FBFBFB"/>
<path d="M11.0673 10.415V8.60351H12.9834V10.415H11.0673ZM11.1532 20.6796V12.0542H12.8951V20.6796H11.1532Z" fill="#FBFBFB"/>
<path d="M21.7003 20.6796L21.5261 19.6451H21.4378C20.822 20.4513 19.9216 20.852 18.7366 20.852C17.5516 20.852 16.6169 20.4441 15.8612 19.6281C15.1056 18.8122 14.7278 17.7243 14.7278 16.3669C14.7278 15.0095 15.1056 13.924 15.8612 13.1056C16.6169 12.2897 17.5762 11.8818 18.7366 11.8818C19.2469 11.8818 19.7155 11.9716 20.14 12.1489C20.5644 12.3261 20.8392 12.4767 20.9668 12.5981C21.0943 12.7195 21.2514 12.8822 21.4378 13.0886H21.5261V8.60351H23.268V20.6796H21.7003ZM17.1934 18.4893C17.6743 19.0308 18.2778 19.3003 18.9967 19.3003C19.7155 19.3003 20.3191 19.0308 20.7999 18.4893C21.2808 17.9477 21.5237 17.2411 21.5237 16.3669C21.5237 15.4927 21.2832 14.786 20.7999 14.2445C20.3166 13.703 19.7155 13.4335 18.9967 13.4335C18.2778 13.4335 17.6743 13.703 17.1934 14.2445C16.7101 14.786 16.4697 15.4927 16.4697 16.3669C16.4697 17.2411 16.7101 17.9477 17.1934 18.4893Z" fill="#FBFBFB"/>
<path d="M25.0124 18.091H26.7543C26.7543 18.4018 26.9285 18.6957 27.2769 18.9701C27.6253 19.2445 28.1184 19.3853 28.7588 19.3853C29.3623 19.3853 29.8186 19.2736 30.1278 19.0478C30.4344 18.8244 30.589 18.5621 30.589 18.2634C30.589 17.9647 30.4909 17.7098 30.2921 17.5301C30.0934 17.3528 29.7573 17.2217 29.2813 17.1415L27.7136 16.8817C26.0281 16.6049 25.1866 15.7719 25.1866 14.3805C25.1866 13.6569 25.4859 13.0571 26.0846 12.586C26.6832 12.1149 27.5468 11.8793 28.6729 11.8793C29.2666 11.8793 29.8039 11.9716 30.2848 12.1562C30.7656 12.3407 31.1435 12.5763 31.4182 12.8628C31.6906 13.1494 31.8967 13.4407 32.0365 13.7346C32.1763 14.0284 32.245 14.3004 32.245 14.5554H30.5031C30.5031 14.2567 30.3461 13.9798 30.0321 13.7273C29.718 13.4747 29.2642 13.3485 28.6729 13.3485C28.0816 13.3485 27.6547 13.4505 27.3652 13.6496C27.0757 13.8511 26.9285 14.0964 26.9285 14.3829C26.9285 14.9002 27.3652 15.245 28.2362 15.4174L29.8039 15.6772C31.4894 15.9541 32.3309 16.8161 32.3309 18.2658C32.3309 19.0016 32.0267 19.6184 31.4158 20.1114C30.8049 20.6068 29.9192 20.852 28.7588 20.852C28.1086 20.852 27.5247 20.7549 27.007 20.5582C26.4894 20.3615 26.0944 20.1162 25.822 19.8151C25.5497 19.5164 25.3461 19.2202 25.2111 18.9264C25.0787 18.6325 25.01 18.3533 25.01 18.0886L25.0124 18.091Z" fill="#FBFBFB"/>
<path d="M43.1381 16.5393H45.0542C44.9389 17.0444 44.7427 17.5398 44.4703 18.023C44.198 18.5063 43.8398 18.9652 43.3982 19.4023C42.9566 19.8394 42.4046 20.1891 41.7422 20.4538C41.0797 20.7185 40.3535 20.8496 39.5635 20.8496C37.9247 20.8496 36.5409 20.2692 35.4148 19.1061C34.2887 17.9453 33.7244 16.4543 33.7244 14.6379C33.7244 12.8215 34.2887 11.3305 35.4148 10.1698C36.5409 9.00904 37.9247 8.42624 39.5635 8.42624C41.0037 8.42624 42.2108 8.83663 43.1798 9.65984C44.1489 10.483 44.7746 11.4811 45.0542 12.654H43.1381C42.8364 11.8502 42.3653 11.231 41.7274 10.7987C41.0871 10.3665 40.3683 10.1528 39.566 10.1528C38.4031 10.1528 37.4463 10.5607 36.6906 11.3767C35.935 12.1926 35.5571 13.2805 35.5571 14.6379C35.5571 15.9954 35.935 17.0808 36.6906 17.8992C37.4463 18.7151 38.4055 19.123 39.566 19.123C40.4958 19.123 41.2662 18.8729 41.8746 18.3727C42.4855 17.8725 42.9051 17.2605 43.1381 16.5344V16.5393Z" fill="#FBFBFB"/>
<path d="M46.7986 17.2289V12.0542H48.5405V17.2289C48.5405 17.7923 48.7417 18.278 49.1416 18.6859C49.5415 19.0939 50.0396 19.2979 50.6308 19.2979C51.2687 19.2979 51.8085 19.0939 52.2427 18.6859C52.6794 18.278 52.8953 17.7923 52.8953 17.2289V12.0542H54.6372V20.6796H53.0695L52.8953 19.8176H52.8094C52.6107 20.0142 52.3973 20.1867 52.1642 20.3348C51.6073 20.6796 50.9792 20.852 50.2824 20.852C49.225 20.852 48.3786 20.5266 47.7456 19.8783C47.1126 19.2275 46.7962 18.346 46.7962 17.2289H46.7986Z" fill="#FBFBFB"/>
<path d="M56.9949 20.6796V8.60351H58.7369V13.0886H58.8227C59.0092 12.8822 59.1662 12.7171 59.2938 12.5981C59.4214 12.4767 59.6986 12.3286 60.1206 12.1489C60.545 11.9716 61.0112 11.8818 61.5239 11.8818C62.6868 11.8818 63.6437 12.2897 64.3993 13.1056C65.155 13.9216 65.5328 15.0095 65.5328 16.3669C65.5328 17.7243 65.155 18.8098 64.3993 19.6281C63.6437 20.4441 62.6844 20.852 61.5239 20.852C60.3635 20.852 59.4385 20.4489 58.8227 19.6451H58.7369L58.5627 20.6796H56.9949ZM59.4606 18.4893C59.9415 19.0308 60.545 19.3003 61.2639 19.3003C61.9827 19.3003 62.5862 19.0308 63.0671 18.4893C63.548 17.9477 63.7909 17.2411 63.7909 16.3669C63.7909 15.4927 63.5504 14.786 63.0671 14.2445C62.5838 13.703 61.9827 13.4335 61.2639 13.4335C60.545 13.4335 59.9415 13.703 59.4606 14.2445C58.9773 14.786 58.7369 15.4927 58.7369 16.3669C58.7369 17.2411 58.9773 17.9477 59.4606 18.4893Z" fill="#FBFBFB"/>
<path d="M73.3788 18.1784H75.209C74.9538 18.8681 74.4926 19.4873 73.8228 20.0337C73.1555 20.58 72.3091 20.852 71.286 20.852C70.02 20.852 68.9773 20.4368 68.1579 19.6087C67.3385 18.7807 66.9288 17.7 66.9288 16.3645C66.9288 15.0289 67.3385 13.9483 68.1579 13.1202C68.9773 12.2921 70.02 11.8769 71.286 11.8769C72.471 11.8769 73.4646 12.28 74.2669 13.0838C75.0691 13.89 75.469 14.8953 75.469 16.1022C75.469 16.2066 75.4519 16.413 75.4175 16.7239L75.3832 16.9643H68.6731C68.7664 17.7 69.051 18.2877 69.5269 18.7248C70.0029 19.1619 70.5892 19.3805 71.2885 19.3805C71.7767 19.3805 72.2085 19.2615 72.5863 19.0259C72.9641 18.7904 73.2291 18.5063 73.3788 18.1711V18.1784ZM68.6731 15.6772H73.8155C73.7222 14.9755 73.4499 14.4121 72.996 13.9871C72.5421 13.5622 71.973 13.3485 71.2885 13.3485C70.5672 13.3485 69.9857 13.5573 69.5465 13.9774C69.1049 14.3975 68.8154 14.9633 68.6756 15.6772H68.6731Z" fill="#FBFBFB"/>
<path d="M75.4862 5.43454H81.5093C81.7792 5.43454 82 5.65309 82 5.9202V11.3961C82 11.6632 81.7792 11.8818 81.5093 11.8818H75.9769C75.707 11.8818 75.4862 11.6632 75.4862 11.3961V5.43454Z" fill="#FBFBFB"/>
<path d="M71.1143 0.621582H74.9955C75.2654 0.621582 75.4862 0.840132 75.4862 1.10725V5.43454H70.6236V1.10725C70.6236 0.840132 70.8444 0.621582 71.1143 0.621582Z" fill="#FBFBFB"/>
<path d="M67.4121 5.43454H70.626V8.61565C70.626 8.88277 70.4052 9.10132 70.1354 9.10132H67.4121C67.1422 9.10132 66.9214 8.88277 66.9214 8.61565V5.9202C66.9214 5.65309 67.1422 5.43454 67.4121 5.43454Z" fill="#FBFBFB"/>
</svg>
