<svg width="819" height="99" viewBox="0 0 819 99" fill="none" xmlns="http://www.w3.org/2000/svg">
<g clip-path="url(#clip0_1_344)">
<path d="M305.262 37.6776C312.27 26.0216 319.034 14.8652 325.706 3.60282C326.107 2.68991 326.788 1.92514 327.653 1.41702C328.519 0.9089 329.524 0.683249 330.526 0.772086C337.611 0.953738 344.696 0.908325 351.796 0.772086C353.907 0.772086 354.749 1.13539 354.749 3.51199C354.657 33.4946 354.657 63.4822 354.749 93.4748C354.749 95.8363 353.984 96.2602 351.826 96.2147C345.231 96.0936 338.621 96.0331 332.025 96.2147C329.302 96.3056 328.965 95.3065 328.965 92.9299C329.057 76.2785 328.965 59.6271 328.383 42.5368L305.002 79.1849C297.152 66.9235 289.516 54.9647 281.375 42.2794C281.284 44.1262 281.176 45.1253 281.176 46.1244C281.176 61.595 281.069 77.0808 281.176 92.5666C281.176 95.6698 280.289 96.3813 277.305 96.2753C271.077 96.0482 264.834 96.1391 258.606 96.2753C256.555 96.2753 255.545 96.0331 255.545 93.5808C255.637 63.5982 255.637 33.6056 255.545 3.60282C255.545 1.25649 256.372 0.802362 258.514 0.832637C265.721 0.9386 272.944 0.953738 280.151 0.832637C281.06 0.71254 281.983 0.88276 282.787 1.31846C283.591 1.75417 284.233 2.43255 284.619 3.25466C291.322 14.6079 298.177 25.8854 305.262 37.6776Z" fill="#FBFBFB"/>
<path d="M601.557 -3.317e-05C613.615 0.121068 626.606 5.28299 636.568 17.2871C638.221 19.3004 638.098 20.239 636.017 21.7376C630.983 25.3706 626.055 29.1702 621.251 33.0757C619.231 34.7105 618.068 35.0284 616.124 32.7578C614.023 30.1426 611.369 28.0148 608.347 26.5241C605.325 25.0333 602.01 24.2159 598.634 24.1293C588.978 23.872 581.802 28.0046 577.578 36.4968C575.415 40.5979 574.313 45.1659 574.371 49.7917C574.43 54.4175 575.648 58.9566 577.915 63.0027C585.566 77.338 604.372 78.9426 616.247 66.2422C618.573 63.7596 619.889 63.4417 622.582 65.5913C627.249 69.2848 632.237 72.6 637.18 75.9302C638.787 77.0201 638.863 77.7619 637.731 79.3211C626.101 95.2156 604.51 102.512 584.051 97.3651C574.541 95.082 565.959 89.9894 559.445 82.7644C552.931 75.5394 548.795 66.5242 547.586 56.9174C543.409 25.3403 566.714 -0.862877 601.557 -3.317e-05Z" fill="#FBFBFB"/>
<path d="M796.491 58.87C796.491 45.3522 796.491 32.7879 796.491 20.2389C796.491 17.5292 796.98 16.3939 800.041 16.5453C805.274 16.8178 810.553 16.7118 815.802 16.5453C818.036 16.5453 819.061 16.8934 819.061 19.4668C818.969 44.4035 818.969 69.3301 819.061 94.2466C819.061 96.2448 818.556 97.0017 816.414 96.926C811.517 96.7746 806.621 96.7898 801.739 96.926C800.908 96.9977 800.073 96.8439 799.323 96.4812C798.574 96.1185 797.938 95.5605 797.485 94.8673C787.284 81.8489 777.057 68.876 766.804 55.9485C766.223 55.2219 765.58 54.5256 764.371 53.1178V57.3109C764.371 69.5269 764.371 81.743 764.371 93.959C764.371 96.3811 763.652 96.9866 761.311 96.9866C755.802 96.82 750.294 96.8503 744.8 96.9866C742.841 96.9866 742.046 96.6233 742.046 94.4434C742.117 69.4058 742.117 44.3632 742.046 19.3155C742.046 17.3324 742.52 16.5301 744.678 16.5907C750.064 16.7269 755.389 16.7572 760.821 16.5907C763.101 16.5907 764.05 17.9077 765.182 19.3306L794.256 56.2058C794.807 56.8416 795.343 57.5228 796.491 58.87Z" fill="#FBFBFB"/>
<path d="M213.128 67.7257C213.128 72.9331 213.128 78.1253 213.128 83.3326C213.214 83.9209 213.145 84.5213 212.928 85.0756C212.711 85.6298 212.353 86.1192 211.888 86.4964C194.016 100.499 165.707 102.194 148.599 88.0101C135.408 77.0808 131.323 62.7303 134.98 46.533C138.698 30.0936 149.624 19.6789 166.074 15.7431C173.188 13.857 180.645 13.6062 187.872 15.0099C195.1 16.4136 201.907 19.4347 207.772 23.8418C209.777 25.3555 210.572 26.3092 208.476 28.5041C205.138 32.0373 202.001 35.7518 199.081 39.6303C197.55 41.6285 196.571 41.3711 194.827 40.0087C190.005 36.2106 184.004 34.1783 177.841 34.2564C165.6 34.2564 156.143 44.6863 156.939 57.3262C157.933 73.5386 172.562 82.8482 188.063 77.2321C190.802 76.2482 192.485 74.8858 191.858 71.722C191.713 70.8855 191.713 70.0306 191.858 69.1941C192.271 66.439 191.353 65.3491 188.354 65.5913C184.957 65.8789 181.514 65.5913 178.101 65.6973C176.372 65.6973 175.714 65.1977 175.76 63.4266C175.867 59.4454 175.867 55.4491 175.76 51.4679C175.76 49.6665 176.479 49.1973 178.163 49.2124C189.027 49.2124 199.907 49.2124 210.787 49.2124C212.837 49.2124 213.204 50.0298 213.174 51.7858C213.082 57.0991 213.128 62.4124 213.128 67.7257Z" fill="#FBFBFB"/>
<path d="M459.446 96.2902C452.101 96.2902 445.139 96.1994 438.176 96.2902C435.957 96.2902 435.605 94.8673 434.963 93.4898C427.281 77.0099 419.605 60.5301 411.933 44.0503C411.367 42.8544 410.785 41.6586 410.219 40.4778C408.811 40.6898 408.888 41.9008 408.521 42.6879C400.747 59.2485 392.928 75.7939 385.384 92.4755C384.992 93.7664 384.136 94.8706 382.977 95.5791C381.818 96.2876 380.437 96.5514 379.095 96.3205C373.127 96.048 367.128 96.3205 361.191 96.3205C360.809 94.8976 361.666 94.0347 362.109 93.1113C374.29 68.0333 386.47 42.9554 398.651 17.8774C398.995 16.886 399.675 16.0429 400.576 15.491C401.477 14.9392 402.543 14.7127 403.593 14.8499C408.184 15.0769 412.882 14.9861 417.518 14.8499C418.29 14.7427 419.076 14.9027 419.742 15.3026C420.409 15.7026 420.915 16.318 421.176 17.0448C433.754 42.9604 446.383 68.876 459.064 94.7916C459.223 95.2827 459.35 95.7832 459.446 96.2902Z" fill="#FBFBFB"/>
<path d="M245.431 25.5522C246.257 26.4 245.905 27.2931 245.905 28.0802C245.905 49.6816 245.905 71.2981 245.997 92.9146C245.997 95.594 245.354 96.4568 242.554 96.3509C236.708 96.139 230.848 96.1844 224.987 96.3509C222.692 96.3509 221.85 95.9119 221.927 93.4142C222.049 78.2009 221.927 62.9876 221.927 47.7743C221.826 47.2569 221.861 46.7228 222.027 46.2223C222.193 45.7218 222.485 45.2713 222.875 44.9133C230.067 38.7371 237.137 32.4399 244.298 26.188C244.648 25.9311 245.028 25.7176 245.431 25.5522Z" fill="#FBFBFB"/>
<path d="M125.202 24.856V42.5972C125.202 59.3697 125.202 76.1573 125.278 92.9449C125.278 95.6697 124.544 96.4569 121.82 96.3509C116.204 96.139 110.588 96.2147 104.988 96.3509C102.922 96.3509 101.927 96.0936 101.927 93.6564C102.05 78.322 101.927 62.9876 101.927 47.6532C101.927 46.5936 101.774 45.5037 102.754 44.6257C110.038 38.2982 117.184 31.9555 125.202 24.856Z" fill="#FBFBFB"/>
<path d="M394.259 96.1086L409.852 59.3696L425.506 96.1086H394.259Z" fill="#F87F1A"/>
<path d="M222.049 34.8164C222.049 28.7614 222.049 22.5701 222.049 16.4394C222.049 14.1839 223.579 14.4109 225.109 14.4109H245.752L222.952 35.3008L222.049 34.8164Z" fill="#80C244"/>
<path d="M125.278 14.3655L102.203 35.422C102.203 28.4284 102.203 22.1614 102.203 15.8793C102.203 14.2293 103.427 14.3655 104.513 14.3655H125.278Z" fill="#7FC242"/>
<path d="M65.9981 6.52435C59.2723 3.37701 52.0014 1.52746 44.5751 1.07481C30.8491 0.196831 17.1537 0.908299 3.47362 0.590409C0.71924 0.529859 4.00785e-05 1.30188 4.00785e-05 4.02665C0.137759 18.7707 4.00785e-05 33.5147 4.00785e-05 48.2588V93.2326C4.00785e-05 94.7464 -0.397815 96.2601 2.23415 96.2601C17.2455 95.8211 32.3028 97.0624 47.2836 95.5033C73.0371 92.839 90.4356 74.9312 91.522 50.0904C92.4401 30.4721 83.1212 14.5624 65.9981 6.52435ZM64.1159 50.2721C63.7028 62.1399 55.5773 70.723 43.3969 72.2822C38.6532 72.9028 33.8942 72.6455 29.1353 72.7968C27.1154 72.7968 26.6869 72.0399 26.7175 70.2386C26.7941 62.9877 26.7175 55.7367 26.7175 48.501C26.7175 41.2652 26.7941 34.2413 26.7175 27.1115C26.7175 24.9922 27.1001 24.084 29.4872 24.2051C34.7206 24.5381 39.9692 23.9023 45.1872 24.9771C57.8421 27.6111 64.6056 36.5574 64.1159 50.2721Z" fill="#FBFBFB"/>
<path d="M732.757 50.3326C730.37 27.2478 711.793 11.2625 687.8 11.2473C653.829 11.2473 631.947 44.0354 646.208 73.6143C654.716 91.2799 673.89 100.711 695.543 97.6074C715.451 94.7767 735.542 77.2019 732.757 50.3326ZM687.953 78.0799C683.323 78.1039 678.791 76.7677 674.929 74.2407C671.068 71.7138 668.052 68.1097 666.264 63.8854C664.475 59.6611 663.995 55.0066 664.883 50.5118C665.771 46.017 667.989 41.8843 671.254 38.6373C674.519 35.3904 678.685 33.1754 683.224 32.273C687.762 31.3707 692.47 31.8216 696.75 33.5687C701.029 35.3157 704.688 38.2803 707.263 42.0866C709.837 45.893 711.212 50.3697 711.212 54.9496C711.208 61.062 708.76 66.9247 704.402 71.2581C700.045 75.5916 694.131 78.0439 687.953 78.0799Z" fill="#FBFBFB"/>
<path d="M523.792 70.9801C522.062 68.5733 521.955 67.6196 524.909 66.1058C542.965 56.9022 541.894 31.1077 529.499 21.7375C523.954 17.4834 517.173 15.1058 510.157 14.9558C496.11 14.6228 482.063 14.8045 468 14.6379C465.674 14.6379 465.536 15.6673 465.536 17.4687C465.536 42.8595 465.536 68.2453 465.536 93.626C465.536 95.6847 466.103 96.3054 468.184 96.2448C474.044 96.1086 479.92 96.1237 485.781 96.2448C487.847 96.2448 488.49 95.7301 488.459 93.6412C488.321 87.2379 488.459 80.8347 488.459 74.4164C488.459 73.5081 488.031 72.4182 488.949 71.7067C490.586 70.42 498.711 71.9792 499.92 73.7503C504.511 80.4866 508.994 87.2077 513.478 93.9742C513.798 94.6744 514.321 95.2652 514.98 95.672C515.639 96.0787 516.405 96.2834 517.181 96.26C525 96.1237 532.82 96.26 541.42 96.26C535.238 87.4347 529.637 79.1242 523.792 70.9801ZM506.73 53.4356C501.267 54.2077 495.743 53.6779 490.249 53.8292C488.536 53.8292 488.26 52.9815 488.291 51.5586C488.291 49.0306 488.291 46.4875 488.291 43.9898C488.291 41.4921 488.291 39.1609 488.291 36.7389C488.291 35.2251 488.52 34.2563 490.448 34.3017C495.697 34.4531 500.961 34.226 506.194 34.559C512.055 34.9375 515.375 38.4948 515.513 43.7476C515.651 49.0003 512.453 52.6182 506.73 53.4356Z" fill="#FBFBFB"/>
<path d="M690.631 70.0115C687.943 70.4867 685.177 70.2501 682.612 69.3257C680.047 68.4012 677.775 66.8219 676.027 64.748C674.279 62.6741 673.116 60.1794 672.657 57.5174C672.199 54.8553 672.46 52.1206 673.416 49.5909C674.46 46.6515 676.448 44.1313 679.077 42.4156C679.418 42.4123 679.754 42.4886 680.058 42.6382C680.363 42.7879 680.628 43.0067 680.831 43.2768C681.034 43.5469 681.169 43.8606 681.226 44.1924C681.283 44.5242 681.26 44.8646 681.159 45.1858C679.965 50.3023 682.26 53.3753 686.805 55.2977C687.224 55.5292 687.615 55.8086 687.968 56.1303C688.534 56.539 689.116 56.8872 689.682 57.2808C690.241 59.6567 691.084 61.9586 692.191 64.1381C693.186 65.9243 692.222 68.3161 690.631 70.0115Z" fill="#4AA0C9"/>
<path d="M689.391 57.7198C689.098 57.7676 688.798 57.73 688.526 57.6118C688.254 57.4935 688.023 57.2996 687.861 57.0537C687.188 56.1001 686.897 54.7982 685.428 54.6014C684.341 54.4501 683.576 53.9505 683.699 52.7244C683.774 52.242 683.987 51.7909 684.312 51.4237C684.637 51.0565 685.062 50.7883 685.535 50.6505C689.789 48.7129 690.585 46.4877 688.427 42.8092C688.392 42.6434 688.394 42.4719 688.434 42.307C688.474 42.1421 688.55 41.988 688.657 41.8556C689.988 40.9473 690.768 42.673 692.176 42.567C690.814 39.7969 692.176 40.2056 693.905 40.9776C696.541 42.0197 698.818 43.7897 700.465 46.0764C702.111 48.3632 703.059 51.0702 703.194 53.8748C703.472 56.667 702.932 59.4795 701.637 61.976C700.343 64.4726 698.349 66.5475 695.894 67.9528C694.976 68.5432 693.966 68.9973 693.002 69.4666C690.508 69.618 691.304 68.3918 692.283 67.4836C694.097 65.9063 695.823 64.2337 697.455 62.473C698.863 60.823 698.771 59.7785 696.675 58.5978C695.61 57.9085 694.399 57.4708 693.136 57.3186C691.873 57.1663 690.592 57.3036 689.391 57.7198Z" fill="#4BA0C9"/>
<path d="M688.595 42.3853C689.223 43.7476 692.497 44.1109 690.998 45.882C689.498 47.6531 690.049 51.8008 685.872 51.2105C685.662 51.1959 685.451 51.2243 685.253 51.2938C685.055 51.3633 684.873 51.4725 684.72 51.6146C684.566 51.7566 684.444 51.9285 684.36 52.1194C684.277 52.3103 684.234 52.5162 684.234 52.7242C684.234 53.9201 684.999 53.6779 685.933 53.7839C687.647 53.9655 688.029 55.4339 687.891 56.9931C686.071 54.8284 682.597 55.0706 681.159 52.0431C680.195 49.9995 679.185 48.2586 680.195 45.988C680.538 45.355 680.615 44.6134 680.409 43.9245C680.203 43.2355 679.73 42.6551 679.093 42.3096C679.27 41.8616 679.594 41.4854 680.013 41.2412C680.432 40.9969 680.921 40.8987 681.403 40.9623C682.735 41.1894 684.112 40.6747 685.428 41.144C686.407 41.8252 687.065 43.4146 688.595 42.3853Z" fill="#FBFBFB"/>
<path d="M689.391 57.7198C691.916 55.8579 698.373 56.8115 699.72 59.2335C700.179 60.0964 699.613 60.8533 699.184 61.5647C697.645 64.0295 695.602 66.1487 693.186 67.7863C692.65 68.1647 690.738 68.6189 692.941 69.512C692.283 70.2386 691.411 70.0418 690.615 70.0115C690.607 68.6907 690.905 67.3856 691.488 66.1968C691.647 65.9731 691.76 65.7202 691.819 65.4529C691.878 65.1855 691.883 64.9092 691.833 64.64C691.783 64.3708 691.68 64.1141 691.528 63.885C691.377 63.6558 691.181 63.4589 690.952 63.3056C688.779 61.8675 689.177 59.7785 689.391 57.7198Z" fill="#FBFBFB"/>
<path d="M688.595 42.3852C688.029 43.0513 688.488 44.5802 687.188 44.5196C685.489 44.4288 686.683 42.4306 685.657 41.7646C685.535 41.1742 684.923 40.8412 684.8 40.2508C686.331 39.2214 688.121 39.8421 689.881 39.7058C688.351 40.3113 688.167 40.7049 688.626 41.8705C688.637 42.0427 688.627 42.2156 688.595 42.3852Z" fill="#61ACD0"/>
<path d="M684.785 40.2358C685.596 40.4628 686.805 40.4477 685.642 41.7495C684.234 41.5376 682.582 42.2793 681.388 41.0532C682.414 40.4539 683.596 40.1694 684.785 40.2358Z" fill="#58A7CD"/>
</g>
<defs>
<clipPath id="clip0_1_344">
<rect width="819" height="99" fill="white"/>
</clipPath>
</defs>
</svg>
