<svg width="10" height="14" viewBox="0 0 10 14" fill="none" xmlns="http://www.w3.org/2000/svg">
<g clip-path="url(#clip0_1_322)">
<path d="M5 0.0700684C3.73331 0.0700692 2.5185 0.563197 1.62282 1.44097C0.72713 2.31874 0.223939 3.50925 0.223938 4.75061C0.223938 8.08604 4.55676 13.9301 5 13.9301C5.44324 13.9301 9.77607 8.08604 9.77607 4.75061C9.77607 4.13595 9.65254 3.52731 9.41252 2.95944C9.17249 2.39157 8.82069 1.87559 8.37719 1.44097C7.93369 1.00634 7.40718 0.661571 6.82772 0.426352C6.24826 0.191133 5.6272 0.0700678 5 0.0700684ZM5 7.14745C4.51628 7.14745 4.04342 7.00688 3.64122 6.74351C3.23902 6.48014 2.92554 6.10581 2.74042 5.66784C2.55531 5.22988 2.50688 4.74796 2.60125 4.28302C2.69561 3.81808 2.92855 3.391 3.27059 3.0558C3.61264 2.7206 4.04843 2.49232 4.52286 2.39984C4.99728 2.30735 5.48904 2.35482 5.93594 2.53623C6.38285 2.71764 6.76482 3.02485 7.03356 3.419C7.30231 3.81316 7.44575 4.27656 7.44575 4.75061C7.44575 5.06537 7.38249 5.37704 7.25958 5.66784C7.13667 5.95864 6.95652 6.22286 6.72941 6.44543C6.5023 6.668 6.23268 6.84455 5.93595 6.965C5.63922 7.08545 5.32118 7.14745 5 7.14745Z" fill="#00C8FA"/>
</g>
<defs>
<clipPath id="clip0_1_322">
<rect width="10" height="14" fill="white"/>
</clipPath>
</defs>
</svg>
